<?xml version="1.0" encoding="utf-8"?>
<!-- Generator: Adobe Illustrator 17.0.2, SVG Export Plug-In . SVG Version: 6.00 Build 0)  -->
<!DOCTYPE svg PUBLIC "-//W3C//DTD SVG 1.1//EN" "http://www.w3.org/Graphics/SVG/1.1/DTD/svg11.dtd">
<svg version="1.1" id="Layer_1" xmlns="http://www.w3.org/2000/svg" xmlns:xlink="http://www.w3.org/1999/xlink" x="0px" y="0px"
	 width="403.964px" height="112.048px" viewBox="0 0 403.964 112.048" enable-background="new 0 0 403.964 112.048"
	 xml:space="preserve">
<path fill="#3B4B9F" stroke="#3B4B9F" stroke-miterlimit="10" d="M279.18,91.033c-1.637,0-3.413-0.042-5.331-0.124
	c-1.918-0.082-3.857-0.202-5.818-0.366c-1.96-0.166-3.882-0.387-5.76-0.674c-1.879-0.287-3.552-0.634-5.023-1.042l19.728-82.336
	c3.428-0.816,7.246-1.365,11.454-1.652s7.984-0.429,11.333-0.429c4.165,0,7.984,0.347,11.457,1.042
	c3.471,0.695,6.449,1.797,8.944,3.308c2.489,1.51,4.449,3.492,5.881,5.942c1.426,2.45,2.142,5.392,2.142,8.82
	c0,4.984-1.489,9.373-4.471,13.173c-2.984,3.797-7.086,6.636-12.315,8.515c3.513,1.308,6.352,3.308,8.515,6.002
	c2.166,2.697,3.247,6.005,3.247,9.926c0,5.636-1.145,10.373-3.428,14.212c-2.29,3.839-5.413,6.923-9.373,9.249
	c-3.963,2.329-8.621,3.984-13.967,4.963C291.042,90.543,285.306,91.033,279.18,91.033z M278.078,50.478l-7.108,30.14
	c0.897,0.166,2.247,0.308,4.045,0.429c1.794,0.124,4.081,0.184,6.86,0.184c3.021,0,6.25-0.224,9.678-0.674
	c3.431-0.447,6.576-1.347,9.436-2.694c2.858-1.35,5.247-3.247,7.168-5.7c1.918-2.45,2.879-5.715,2.879-9.802
	c0-3.999-1.432-6.984-4.289-8.944c-2.861-1.957-7.473-2.939-13.844-2.939H278.078z M280.404,41.165h11.642
	c2.694,0,5.452-0.224,8.271-0.674c2.818-0.447,5.389-1.266,7.718-2.45c2.329-1.184,4.247-2.797,5.757-4.839s2.268-4.658,2.268-7.842
	c0-4.165-1.553-7.065-4.658-8.699c-3.105-1.634-7.839-2.45-14.212-2.45c-2.124,0-4.208,0.082-6.247,0.245
	c-2.045,0.163-3.431,0.326-4.165,0.489L280.404,41.165z"/>
<path fill="#3B4B9F" stroke="#3B4B9F" stroke-miterlimit="10" d="M340.285,90.175h-11.394l15.315-63.711H355.6L340.285,90.175z
	 M353.519,14.946c-1.882,0-3.453-0.571-4.718-1.716c-1.269-1.142-1.9-2.734-1.9-4.779c0-2.613,0.816-4.673,2.45-6.186
	C350.984,0.755,352.824,0,354.866,0c1.879,0,3.471,0.592,4.779,1.776c1.305,1.184,1.96,2.839,1.96,4.96
	c0,2.453-0.858,4.434-2.574,5.945C357.316,14.191,355.479,14.946,353.519,14.946z"/>
<path fill="#3B4B9F" stroke="#3B4B9F" stroke-miterlimit="10" d="M378.113,91.891c-6.126,0-10.621-1.347-13.478-4.045
	c-2.861-2.694-4.289-6.615-4.289-11.762c0-3.347,0.571-7.636,1.716-12.865l13.11-54.522l11.886-1.96l-4.779,19.728h21.685
	l-2.326,9.557H379.95l-6.739,28.179c-0.979,3.839-1.471,7.189-1.471,10.047c0,2.694,0.737,4.637,2.208,5.821
	c1.468,1.184,3.921,1.776,7.349,1.776c2.368,0,4.697-0.387,6.984-1.166c2.287-0.773,4.045-1.489,5.268-2.142l0.858,9.678
	c-1.223,0.734-3.308,1.531-6.247,2.389C385.218,91.462,381.868,91.891,378.113,91.891z"/>
<path fill="#484748" stroke="#484748" stroke-width="2" stroke-miterlimit="10" d="M45.526,90.127
	c-4.23,0.444-15.141,0.556-21.711,0.556C8.229,90.682,0.1,84.783,0.1,69.973V27.11C0.1,12.3,8.229,6.401,23.815,6.401
	c6.57,0,17.035,0.221,21.711,0.668c0.669,0.112,1.113,0.891,1.113,1.559v5.567c0,0.779-0.444,1.335-1.223,1.335H23.927
	c-11.802,0-13.696,3.117-13.696,11.581v15.475h34.181c1.225,0,2.226,1.003,2.226,2.226v4.232c0,1.223-1.001,2.226-2.226,2.226
	H10.231v18.704c0,8.464,1.894,11.581,13.696,11.581h21.489c0.779,0,1.223,0.556,1.223,1.335v5.679
	C46.639,89.236,46.195,90.015,45.526,90.127z"/>
<path fill="#484748" stroke="#484748" stroke-width="2" stroke-miterlimit="10" d="M104.231,31.339L89.2,84.336
	c-1.447,5.011-5.233,6.346-10.021,6.346c-4.786,0-8.573-1.335-10.019-6.346L54.129,31.339c-0.112-0.332-0.112-0.556-0.112-0.779
	c0-1.112,0.668-1.891,1.782-1.891h6.123c0.891,0,1.67,0.668,2.116,2.114l12.803,48.545c0.669,2.67,1.225,3.229,2.338,3.229
	c1.003,0,1.67-0.559,2.339-3.229l12.803-48.545c0.446-1.447,1.225-2.114,2.116-2.114h6.123c1.115,0,1.782,0.779,1.782,1.891
	C104.343,30.783,104.343,31.007,104.231,31.339z"/>
<path fill="#484748" stroke="#484748" stroke-width="2" stroke-miterlimit="10" d="M156.034,62.403h-37.299v1.559
	c0,13.249,5.233,18.148,15.476,18.148c6.458,0,14.697-0.444,19.818-1.223c0.222,0,0.334,0,0.557,0c0.89,0,1.781,0.444,1.781,1.559
	v3.785c0,1.447-0.446,2.226-2.226,2.562c-6.346,1.223-12.471,1.891-19.93,1.891c-12.804,0-25.274-6.011-25.274-26.721V53.942
	c0-15.922,8.796-26.053,24.718-26.053c16.254,0,24.494,10.243,24.494,26.053v6.011C158.15,61.4,157.37,62.403,156.034,62.403z
	 M148.24,53.942c0-12.581-4.788-17.48-14.585-17.48c-9.575,0-14.92,5.455-14.92,17.48v1h29.506V53.942z"/>
<path fill="#484748" stroke="#484748" stroke-width="2" stroke-miterlimit="10" d="M196.678,36.35
	c-5.121,0-9.797,1.335-15.364,4.676v46.651c0,1.115-1.001,2.226-2.226,2.226h-5.455c-1.115,0-2.116-1-2.116-2.226V30.895
	c0-1.226,0.891-2.226,2.116-2.226h5.232c1.225,0,2.116,1,2.116,2.226v2.338c5.567-3.897,10.689-5.343,15.698-5.343
	c1.559,0,2.338,0.668,2.338,2.003v4.564C199.016,35.683,198.237,36.35,196.678,36.35z"/>
<path fill="#484748" stroke="#484748" stroke-width="2" stroke-miterlimit="10" d="M257.029,31.339L238.657,95.47
	c-3.451,12.025-7.57,16.478-20.374,16.478c-3.117,0-7.014-0.444-9.352-1c-1.337-0.335-2.339-0.668-2.339-1.782v-4.12
	c0-1.223,0.891-1.782,2.116-1.782c0.112,0,0.224,0,0.334,0c2.45,0.224,7.459,0.671,9.909,0.671c6.346,0,9.13-1.67,11.022-9.467
	l1.115-4.564h-1.559c-3.341,0-6.236-0.779-8.24-7.681l-14.807-50.883c-0.112-0.224-0.112-0.556-0.112-0.779
	c0-1.112,0.668-1.891,2.004-1.891h6.123c0.891,0,1.67,0.888,1.894,1.779l13.138,48.321c0.556,2.226,1.335,2.45,2.114,2.45h1.782
	l13.582-50.883c0.224-0.888,1.115-1.667,2.116-1.667h6.235c1.113,0,1.782,0.779,1.782,1.891
	C257.14,30.783,257.14,31.116,257.029,31.339z"/>
</svg>
