<?xml version="1.0" encoding="utf-8"?>
<!-- Generator: Adobe Illustrator 17.0.2, SVG Export Plug-In . SVG Version: 6.00 Build 0)  -->
<!DOCTYPE svg PUBLIC "-//W3C//DTD SVG 1.1//EN" "http://www.w3.org/Graphics/SVG/1.1/DTD/svg11.dtd">
<svg version="1.1" id="Layer_1" xmlns="http://www.w3.org/2000/svg" xmlns:xlink="http://www.w3.org/1999/xlink" x="0px" y="0px"
	 width="415px" height="132px" viewBox="0 0 415 132" enable-background="new 0 0 415 132" xml:space="preserve">
<rect fill="#FFFFFF" width="415" height="132"/>
<path fill="#3B4B9F" d="M218.717,78.735c-1.261,0-2.628-0.033-4.105-0.095c-1.477-0.063-2.97-0.156-4.48-0.281
	c-1.51-0.128-2.989-0.298-4.435-0.519c-1.447-0.221-2.735-0.488-3.868-0.802l15.19-63.399c2.64-0.628,5.58-1.051,8.82-1.272
	s6.147-0.33,8.727-0.33c3.207,0,6.147,0.267,8.822,0.802c2.672,0.535,4.966,1.384,6.887,2.547c1.917,1.163,3.426,2.689,4.529,4.575
	c1.098,1.886,1.649,4.152,1.649,6.792c0,3.838-1.147,7.217-3.442,10.143c-2.298,2.924-5.457,5.11-9.483,6.557
	c2.705,1.007,4.891,2.547,6.557,4.622c1.668,2.077,2.5,4.624,2.5,7.643c0,4.34-0.882,7.987-2.64,10.943
	c-1.763,2.956-4.168,5.331-7.217,7.122c-3.052,1.793-6.638,3.068-10.755,3.821C227.851,78.358,223.434,78.735,218.717,78.735z
	 M217.868,47.508l-5.473,23.208c0.691,0.128,1.73,0.237,3.114,0.33c1.382,0.095,3.142,0.142,5.282,0.142
	c2.326,0,4.812-0.172,7.452-0.519c2.642-0.344,5.063-1.037,7.266-2.075c2.2-1.04,4.04-2.5,5.519-4.389
	c1.477-1.886,2.217-4.401,2.217-7.548c0-3.079-1.102-5.377-3.303-6.887c-2.203-1.507-5.754-2.263-10.66-2.263H217.868z
	 M219.659,40.337h8.964c2.075,0,4.198-0.172,6.368-0.519c2.17-0.344,4.149-0.975,5.943-1.886s3.27-2.154,4.433-3.726
	c1.163-1.572,1.747-3.587,1.747-6.038c0-3.207-1.196-5.44-3.587-6.699s-6.036-1.886-10.943-1.886c-1.635,0-3.24,0.063-4.81,0.188
	c-1.575,0.126-2.642,0.251-3.207,0.377L219.659,40.337z"/>
<path fill="#3B4B9F" d="M265.768,78.075h-8.773l11.792-49.058h8.773L265.768,78.075z M275.958,20.148
	c-1.449,0-2.659-0.44-3.633-1.321c-0.977-0.879-1.463-2.105-1.463-3.68c0-2.012,0.628-3.598,1.886-4.763
	c1.258-1.163,2.675-1.744,4.247-1.744c1.447,0,2.672,0.456,3.68,1.368c1.005,0.912,1.509,2.186,1.509,3.819
	c0,1.889-0.661,3.414-1.982,4.577C278.881,19.567,277.467,20.148,275.958,20.148z"/>
<path fill="#3B4B9F" d="M294.896,79.396c-4.717,0-8.178-1.037-10.378-3.114c-2.203-2.075-3.303-5.094-3.303-9.057
	c0-2.577,0.44-5.88,1.321-9.906l10.094-41.982l9.152-1.51l-3.68,15.19H314.8l-1.791,7.359h-16.7l-5.189,21.698
	c-0.754,2.956-1.133,5.536-1.133,7.736c0,2.075,0.568,3.57,1.7,4.482c1.13,0.912,3.019,1.368,5.659,1.368
	c1.823,0,3.617-0.298,5.377-0.898c1.761-0.595,3.114-1.147,4.056-1.649l0.661,7.452c-0.942,0.565-2.547,1.179-4.81,1.84
	C300.366,79.065,297.787,79.396,294.896,79.396z"/>
<path fill="#484748" stroke="#484748" stroke-width="0.2" stroke-miterlimit="10" d="M38.803,78.037
	c-3.257,0.342-11.659,0.428-16.717,0.428c-12.002,0-18.261-4.542-18.261-15.946V29.515c0-11.404,6.259-15.946,18.261-15.946
	c5.059,0,13.117,0.17,16.717,0.514c0.515,0.086,0.857,0.686,0.857,1.2v4.287c0,0.6-0.342,1.028-0.942,1.028H22.172
	c-9.087,0-10.546,2.4-10.546,8.917V41.43h26.32c0.943,0,1.714,0.772,1.714,1.714v3.259c0,0.942-0.771,1.714-1.714,1.714h-26.32
	v14.402c0,6.517,1.458,8.917,10.546,8.917h16.546c0.6,0,0.942,0.428,0.942,1.028v4.373C39.66,77.351,39.318,77.951,38.803,78.037z"
	/>
<path fill="#484748" stroke="#484748" stroke-width="0.2" stroke-miterlimit="10" d="M84.006,32.771L72.432,73.579
	c-1.114,3.859-4.03,4.887-7.716,4.887c-3.685,0-6.601-1.028-7.715-4.887L45.428,32.771c-0.086-0.256-0.086-0.428-0.086-0.6
	c0-0.856,0.514-1.456,1.372-1.456h4.715c0.686,0,1.286,0.514,1.629,1.628l9.858,37.379c0.515,2.056,0.943,2.486,1.8,2.486
	c0.772,0,1.286-0.43,1.801-2.486l9.858-37.379c0.343-1.114,0.943-1.628,1.629-1.628h4.715c0.858,0,1.372,0.6,1.372,1.456
	C84.092,32.343,84.092,32.515,84.006,32.771z"/>
<path fill="#484748" stroke="#484748" stroke-width="0.2" stroke-miterlimit="10" d="M123.894,56.69h-28.72v1.2
	c0,10.201,4.03,13.974,11.917,13.974c4.973,0,11.317-0.342,15.26-0.942c0.171,0,0.257,0,0.429,0c0.685,0,1.371,0.342,1.371,1.2
	v2.914c0,1.114-0.343,1.714-1.714,1.972c-4.887,0.942-9.602,1.456-15.346,1.456c-9.859,0-19.461-4.629-19.461-20.575v-7.715
	c0-12.26,6.773-20.061,19.033-20.061c12.516,0,18.861,7.887,18.861,20.061v4.629C125.524,55.918,124.923,56.69,123.894,56.69z
	 M117.893,50.175c0-9.687-3.687-13.46-11.231-13.46c-7.373,0-11.489,4.201-11.489,13.46v0.77h22.719V50.175z"/>
<path fill="#484748" stroke="#484748" stroke-width="0.2" stroke-miterlimit="10" d="M155.19,36.63c-3.944,0-7.544,1.028-11.831,3.6
	v35.921c0,0.858-0.771,1.714-1.714,1.714h-4.201c-0.858,0-1.629-0.77-1.629-1.714V32.429c0-0.944,0.686-1.714,1.629-1.714h4.028
	c0.943,0,1.629,0.77,1.629,1.714v1.8c4.287-3,8.23-4.114,12.088-4.114c1.2,0,1.8,0.514,1.8,1.542v3.514
	C156.99,36.115,156.39,36.63,155.19,36.63z"/>
<path fill="#484748" stroke="#484748" stroke-width="0.2" stroke-miterlimit="10" d="M201.66,32.771l-14.146,49.381
	c-2.657,9.259-5.829,12.688-15.688,12.688c-2.4,0-5.401-0.342-7.201-0.77c-1.029-0.258-1.801-0.514-1.801-1.372v-3.173
	c0-0.942,0.686-1.372,1.629-1.372c0.086,0,0.172,0,0.257,0c1.886,0.172,5.744,0.516,7.63,0.516c4.887,0,7.03-1.286,8.487-7.289
	l0.858-3.514h-1.2c-2.572,0-4.802-0.6-6.345-5.915l-11.402-39.18c-0.086-0.172-0.086-0.428-0.086-0.6
	c0-0.856,0.514-1.456,1.543-1.456h4.715c0.686,0,1.286,0.684,1.458,1.37l10.116,37.207c0.428,1.714,1.028,1.886,1.628,1.886h1.372
	l10.458-39.18c0.172-0.684,0.858-1.284,1.629-1.284h4.801c0.857,0,1.372,0.6,1.372,1.456
	C201.746,32.343,201.746,32.599,201.66,32.771z"/>
<text transform="matrix(1 0 0 1 0.2993 124.146)"><tspan x="0" y="0" font-family="'Ubuntu'" font-size="28.5281">forum software for </tspan><tspan x="254.465" y="0" fill="#3B4B9F" font-family="'NeoSansStd-MediumItalic'" font-size="28.5281">power </tspan><tspan x="345.383" y="0" font-family="'Ubuntu'" font-size="28.5281">users</tspan></text>
<rect x="-373.381" y="191.601" fill="#B5B5B6" stroke="#484748" stroke-width="0.2" stroke-miterlimit="10" width="1127.944" height="533.973"/>
<rect x="-175.391" y="902" fill="none" width="164.992" height="64.497"/>
<text transform="matrix(1 0 0 1 -160.1428 926.8302)" fill="#3B4B9F" font-family="'Ubuntu-Medium'" font-size="32">features:</text>
<circle fill="#C6C6C5" stroke="#3B4B9F" stroke-miterlimit="10" cx="12.35" cy="914.565" r="14.249"/>
<circle fill="#C6C6C5" stroke="#3B4B9F" stroke-miterlimit="10" cx="59.255" cy="914.565" r="14.249"/>
<circle fill="#3B4B9F" stroke="#3B4B9F" stroke-miterlimit="10" cx="106.16" cy="914.565" r="14.249"/>
<circle fill="#C6C6C5" stroke="#3B4B9F" stroke-miterlimit="10" cx="153.065" cy="914.565" r="14.249"/>
<circle fill="#C6C6C5" stroke="#3B4B9F" stroke-miterlimit="10" cx="199.97" cy="914.565" r="14.249"/>
<circle fill="#C6C6C5" stroke="#3B4B9F" stroke-miterlimit="10" cx="246.876" cy="914.565" r="14.249"/>
<circle fill="#C6C6C5" stroke="#3B4B9F" stroke-miterlimit="10" cx="293.781" cy="914.565" r="14.249"/>
<circle fill="#C6C6C5" stroke="#3B4B9F" stroke-miterlimit="10" cx="340.686" cy="914.565" r="14.249"/>
<circle fill="#C6C6C5" stroke="#3B4B9F" stroke-miterlimit="10" cx="387.591" cy="914.565" r="14.249"/>
</svg>
