<?xml version="1.0" encoding="utf-8"?>
<!-- Generator: Adobe Illustrator 17.0.2, SVG Export Plug-In . SVG Version: 6.00 Build 0)  -->
<!DOCTYPE svg PUBLIC "-//W3C//DTD SVG 1.1//EN" "http://www.w3.org/Graphics/SVG/1.1/DTD/svg11.dtd">
<svg version="1.1" id="Layer_1" xmlns="http://www.w3.org/2000/svg" xmlns:xlink="http://www.w3.org/1999/xlink" x="0px" y="0px"
	 width="415px" height="132px" viewBox="0 0 415 132" enable-background="new 0 0 415 132" xml:space="preserve">
<rect fill="none" width="415" height="132"/>
<path fill="#3B4B9F" d="M268.757,78.735c-1.261,0-2.628-0.033-4.105-0.095c-1.477-0.063-2.97-0.156-4.48-0.281
	c-1.51-0.128-2.989-0.298-4.435-0.519c-1.447-0.221-2.735-0.488-3.868-0.802l15.19-63.399c2.64-0.628,5.58-1.051,8.82-1.272
	s6.147-0.33,8.727-0.33c3.207,0,6.147,0.267,8.822,0.802c2.672,0.535,4.966,1.384,6.887,2.547c1.917,1.163,3.426,2.689,4.529,4.575
	c1.098,1.886,1.649,4.152,1.649,6.792c0,3.838-1.147,7.217-3.442,10.143c-2.298,2.924-5.457,5.11-9.483,6.557
	c2.705,1.007,4.891,2.547,6.557,4.622c1.668,2.077,2.5,4.624,2.5,7.643c0,4.34-0.882,7.987-2.64,10.943
	c-1.763,2.956-4.168,5.331-7.217,7.122c-3.052,1.793-6.638,3.068-10.755,3.821C277.891,78.358,273.474,78.735,268.757,78.735z
	 M267.908,47.508l-5.473,23.208c0.691,0.128,1.73,0.237,3.114,0.33c1.382,0.095,3.142,0.142,5.282,0.142
	c2.326,0,4.812-0.172,7.452-0.519c2.642-0.344,5.063-1.037,7.266-2.075c2.2-1.04,4.04-2.5,5.519-4.389
	c1.477-1.886,2.217-4.401,2.217-7.548c0-3.079-1.102-5.377-3.303-6.887c-2.203-1.507-5.754-2.263-10.66-2.263H267.908z
	 M269.699,40.337h8.964c2.075,0,4.198-0.172,6.368-0.519c2.17-0.344,4.149-0.975,5.943-1.886c1.793-0.912,3.27-2.154,4.433-3.726
	s1.747-3.587,1.747-6.038c0-3.207-1.195-5.44-3.587-6.699c-2.391-1.258-6.036-1.886-10.943-1.886c-1.635,0-3.24,0.063-4.81,0.188
	c-1.575,0.126-2.642,0.251-3.207,0.377L269.699,40.337z"/>
<path fill="#3B4B9F" d="M315.808,78.075h-8.773l11.792-49.058h8.773L315.808,78.075z M325.998,20.148
	c-1.449,0-2.658-0.44-3.633-1.321c-0.977-0.879-1.463-2.105-1.463-3.68c0-2.012,0.628-3.598,1.886-4.763
	c1.258-1.163,2.675-1.744,4.247-1.744c1.447,0,2.672,0.456,3.68,1.368c1.005,0.912,1.509,2.186,1.509,3.819
	c0,1.889-0.661,3.414-1.982,4.577C328.921,19.567,327.507,20.148,325.998,20.148z"/>
<path fill="#3B4B9F" d="M344.936,79.396c-4.717,0-8.178-1.037-10.378-3.114c-2.203-2.075-3.303-5.094-3.303-9.057
	c0-2.577,0.44-5.88,1.321-9.906l10.094-41.982l9.152-1.51l-3.68,15.19h16.698l-1.791,7.359h-16.7l-5.189,21.698
	c-0.754,2.956-1.133,5.536-1.133,7.736c0,2.075,0.568,3.57,1.7,4.482c1.13,0.912,3.019,1.368,5.659,1.368
	c1.824,0,3.617-0.298,5.377-0.898c1.761-0.595,3.114-1.147,4.056-1.649l0.661,7.452c-0.942,0.565-2.547,1.179-4.81,1.84
	C350.406,79.065,347.827,79.396,344.936,79.396z"/>
<path fill="#484748" stroke="#484748" stroke-width="0.2" stroke-miterlimit="10" d="M88.843,78.037
	c-3.257,0.342-11.659,0.428-16.717,0.428c-12.002,0-18.261-4.542-18.261-15.946V29.515c0-11.404,6.259-15.946,18.261-15.946
	c5.059,0,13.117,0.17,16.717,0.514c0.515,0.086,0.857,0.686,0.857,1.2v4.287c0,0.6-0.342,1.028-0.942,1.028H72.212
	c-9.087,0-10.546,2.4-10.546,8.917V41.43h26.32c0.943,0,1.714,0.772,1.714,1.714v3.259c0,0.942-0.771,1.714-1.714,1.714h-26.32
	v14.402c0,6.517,1.458,8.917,10.546,8.917h16.546c0.6,0,0.942,0.428,0.942,1.028v4.373C89.7,77.351,89.358,77.951,88.843,78.037z"/>
<path fill="#484748" stroke="#484748" stroke-width="0.2" stroke-miterlimit="10" d="M134.046,32.771l-11.574,40.808
	c-1.114,3.859-4.03,4.887-7.716,4.887c-3.685,0-6.601-1.028-7.715-4.887L95.468,32.771c-0.086-0.256-0.086-0.428-0.086-0.6
	c0-0.856,0.514-1.456,1.372-1.456h4.715c0.686,0,1.286,0.514,1.629,1.628l9.858,37.379c0.515,2.056,0.943,2.486,1.8,2.486
	c0.772,0,1.286-0.43,1.801-2.486l9.858-37.379c0.343-1.114,0.943-1.628,1.629-1.628h4.715c0.858,0,1.372,0.6,1.372,1.456
	C134.132,32.343,134.132,32.515,134.046,32.771z"/>
<path fill="#484748" stroke="#484748" stroke-width="0.2" stroke-miterlimit="10" d="M173.934,56.69h-28.72v1.2
	c0,10.201,4.03,13.974,11.917,13.974c4.973,0,11.317-0.342,15.26-0.942c0.171,0,0.257,0,0.429,0c0.685,0,1.371,0.342,1.371,1.2
	v2.914c0,1.114-0.343,1.714-1.714,1.972c-4.887,0.942-9.602,1.456-15.346,1.456c-9.859,0-19.461-4.629-19.461-20.575v-7.715
	c0-12.26,6.773-20.061,19.033-20.061c12.516,0,18.861,7.887,18.861,20.061v4.629C175.564,55.918,174.963,56.69,173.934,56.69z
	 M167.933,50.175c0-9.687-3.687-13.46-11.231-13.46c-7.373,0-11.489,4.201-11.489,13.46v0.77h22.719V50.175z"/>
<path fill="#484748" stroke="#484748" stroke-width="0.2" stroke-miterlimit="10" d="M205.23,36.63c-3.944,0-7.544,1.028-11.831,3.6
	v35.921c0,0.858-0.771,1.714-1.714,1.714h-4.201c-0.858,0-1.629-0.77-1.629-1.714V32.429c0-0.944,0.686-1.714,1.629-1.714h4.028
	c0.943,0,1.629,0.77,1.629,1.714v1.8c4.287-3,8.23-4.114,12.088-4.114c1.2,0,1.8,0.514,1.8,1.542v3.514
	C207.03,36.115,206.43,36.63,205.23,36.63z"/>
<path fill="#484748" stroke="#484748" stroke-width="0.2" stroke-miterlimit="10" d="M251.7,32.771l-14.146,49.381
	c-2.657,9.259-5.829,12.688-15.688,12.688c-2.4,0-5.401-0.342-7.201-0.77c-1.029-0.258-1.801-0.514-1.801-1.372v-3.173
	c0-0.942,0.686-1.372,1.629-1.372c0.086,0,0.172,0,0.257,0c1.886,0.172,5.744,0.516,7.63,0.516c4.887,0,7.03-1.286,8.487-7.289
	l0.858-3.514h-1.2c-2.572,0-4.802-0.6-6.345-5.915l-11.402-39.18c-0.086-0.172-0.086-0.428-0.086-0.6
	c0-0.856,0.514-1.456,1.543-1.456h4.715c0.686,0,1.286,0.684,1.458,1.37l10.116,37.207c0.428,1.714,1.028,1.886,1.628,1.886h1.372
	l10.458-39.18c0.172-0.684,0.858-1.284,1.629-1.284h4.801c0.857,0,1.372,0.6,1.372,1.456
	C251.786,32.343,251.786,32.599,251.7,32.771z"/>
<g>
	<path d="M9.705,102.008c0.78,0,1.45,0.058,2.011,0.171c0.561,0.114,0.956,0.219,1.184,0.314l-0.485,2.282
		c-0.229-0.114-0.552-0.224-0.97-0.328s-0.932-0.157-1.541-0.157c-1.236,0-2.102,0.338-2.596,1.013
		c-0.495,0.676-0.742,1.583-0.742,2.725v1.284h5.706v2.225H6.567v12.609H3.914v-16.175c0-1.902,0.466-3.371,1.398-4.408
		C6.243,102.526,7.708,102.008,9.705,102.008z"/>
	<path d="M27.74,116.729c0,1.18-0.171,2.244-0.513,3.195s-0.823,1.769-1.441,2.453s-1.355,1.213-2.211,1.583
		c-0.855,0.371-1.788,0.557-2.795,0.557c-1.008,0-1.94-0.186-2.796-0.557c-0.856-0.37-1.593-0.898-2.211-1.583
		c-0.618-0.685-1.099-1.502-1.441-2.453s-0.513-2.016-0.513-3.195c0-1.16,0.171-2.221,0.513-3.181
		c0.342-0.961,0.823-1.783,1.441-2.468c0.618-0.685,1.355-1.213,2.211-1.584c0.856-0.37,1.788-0.556,2.796-0.556
		c1.008,0,1.94,0.186,2.795,0.556c0.856,0.371,1.593,0.899,2.211,1.584s1.099,1.507,1.441,2.468
		C27.569,114.508,27.74,115.568,27.74,116.729z M24.973,116.729c0-1.674-0.375-3-1.127-3.979s-1.773-1.47-3.066-1.47
		c-1.294,0-2.316,0.49-3.067,1.47c-0.751,0.979-1.127,2.306-1.127,3.979s0.375,3,1.127,3.979c0.751,0.979,1.773,1.47,3.067,1.47
		c1.293,0,2.315-0.49,3.066-1.47S24.973,118.402,24.973,116.729z"/>
	<path d="M36.766,108.997c0.228,0,0.489,0.015,0.784,0.043s0.585,0.067,0.87,0.114c0.286,0.048,0.547,0.096,0.785,0.143
		c0.238,0.048,0.414,0.091,0.528,0.128l-0.457,2.312c-0.209-0.076-0.556-0.167-1.041-0.271c-0.485-0.104-1.108-0.157-1.869-0.157
		c-0.495,0-0.984,0.053-1.469,0.157s-0.804,0.176-0.956,0.214v12.467h-2.653v-14.207c0.627-0.228,1.407-0.442,2.339-0.642
		C34.56,109.097,35.605,108.997,36.766,108.997z"/>
	<path d="M54.21,123.718c-0.609,0.152-1.412,0.313-2.411,0.485c-0.999,0.171-2.154,0.257-3.466,0.257
		c-1.141,0-2.102-0.167-2.881-0.5c-0.78-0.332-1.408-0.803-1.883-1.412c-0.476-0.608-0.818-1.326-1.027-2.153
		c-0.209-0.827-0.314-1.745-0.314-2.753v-8.33h2.653v7.759c0,1.808,0.285,3.101,0.856,3.88c0.57,0.78,1.531,1.17,2.881,1.17
		c0.285,0,0.58-0.009,0.884-0.028c0.304-0.019,0.589-0.043,0.856-0.071c0.266-0.028,0.508-0.058,0.728-0.086
		c0.218-0.028,0.375-0.062,0.471-0.1v-12.523h2.653V123.718z"/>
	<path d="M58.538,109.739c0.608-0.152,1.412-0.314,2.411-0.485s2.154-0.257,3.466-0.257c0.951,0,1.75,0.129,2.396,0.386
		s1.188,0.632,1.626,1.127c0.133-0.096,0.342-0.229,0.627-0.399c0.285-0.172,0.637-0.338,1.056-0.5
		c0.418-0.161,0.884-0.304,1.398-0.428c0.513-0.123,1.065-0.186,1.654-0.186c1.141,0,2.073,0.167,2.796,0.499
		c0.723,0.333,1.288,0.804,1.697,1.413c0.409,0.608,0.685,1.331,0.828,2.168s0.214,1.75,0.214,2.738v8.33h-2.653v-7.76
		c0-0.874-0.042-1.626-0.128-2.253c-0.085-0.628-0.247-1.151-0.485-1.569s-0.561-0.728-0.97-0.928
		c-0.409-0.199-0.937-0.299-1.583-0.299c-0.894,0-1.631,0.119-2.211,0.356c-0.58,0.238-0.975,0.452-1.184,0.642
		c0.152,0.495,0.266,1.037,0.343,1.626c0.076,0.59,0.114,1.208,0.114,1.854v8.33h-2.653v-7.76c0-0.874-0.048-1.626-0.143-2.253
		c-0.096-0.628-0.262-1.151-0.5-1.569s-0.561-0.728-0.97-0.928c-0.409-0.199-0.927-0.299-1.555-0.299
		c-0.266,0-0.552,0.01-0.855,0.028c-0.305,0.02-0.595,0.043-0.87,0.071c-0.276,0.028-0.528,0.062-0.756,0.1
		c-0.228,0.038-0.38,0.067-0.456,0.086v12.523h-2.653V109.739z"/>
	<path d="M93.142,122.234c1.084,0,1.887-0.143,2.411-0.428c0.522-0.285,0.784-0.742,0.784-1.369c0-0.646-0.257-1.16-0.77-1.541
		c-0.514-0.38-1.36-0.808-2.539-1.283c-0.571-0.229-1.118-0.461-1.641-0.699c-0.523-0.237-0.975-0.519-1.355-0.842
		s-0.685-0.713-0.913-1.17c-0.229-0.456-0.343-1.017-0.343-1.683c0-1.312,0.485-2.354,1.455-3.124
		c0.97-0.771,2.292-1.155,3.965-1.155c0.418,0,0.837,0.023,1.255,0.071c0.418,0.048,0.808,0.104,1.169,0.171
		c0.361,0.067,0.68,0.139,0.956,0.214c0.275,0.076,0.489,0.143,0.642,0.2l-0.485,2.282c-0.285-0.152-0.732-0.31-1.341-0.471
		c-0.609-0.162-1.341-0.243-2.197-0.243c-0.742,0-1.388,0.148-1.94,0.442c-0.552,0.295-0.827,0.756-0.827,1.384
		c0,0.323,0.062,0.609,0.186,0.855c0.124,0.248,0.313,0.471,0.57,0.671c0.257,0.199,0.575,0.385,0.956,0.557
		c0.38,0.171,0.836,0.352,1.369,0.542c0.704,0.267,1.331,0.527,1.883,0.784c0.551,0.257,1.022,0.557,1.412,0.898
		c0.39,0.343,0.689,0.756,0.899,1.241c0.209,0.485,0.313,1.079,0.313,1.783c0,1.369-0.509,2.406-1.526,3.109
		c-1.018,0.704-2.467,1.056-4.35,1.056c-1.312,0-2.339-0.109-3.081-0.328s-1.246-0.386-1.512-0.499l0.485-2.282
		c0.304,0.113,0.789,0.285,1.455,0.513C91.154,122.12,92.039,122.234,93.142,122.234z"/>
	<path d="M115.374,116.729c0,1.18-0.171,2.244-0.513,3.195s-0.823,1.769-1.441,2.453s-1.355,1.213-2.211,1.583
		c-0.855,0.371-1.788,0.557-2.795,0.557c-1.008,0-1.94-0.186-2.796-0.557c-0.856-0.37-1.593-0.898-2.211-1.583
		c-0.618-0.685-1.099-1.502-1.441-2.453s-0.513-2.016-0.513-3.195c0-1.16,0.171-2.221,0.513-3.181
		c0.342-0.961,0.823-1.783,1.441-2.468c0.618-0.685,1.355-1.213,2.211-1.584c0.856-0.37,1.788-0.556,2.796-0.556
		c1.008,0,1.94,0.186,2.795,0.556c0.856,0.371,1.593,0.899,2.211,1.584s1.099,1.507,1.441,2.468
		C115.203,114.508,115.374,115.568,115.374,116.729z M112.607,116.729c0-1.674-0.375-3-1.127-3.979s-1.773-1.47-3.066-1.47
		c-1.294,0-2.316,0.49-3.067,1.47c-0.751,0.979-1.127,2.306-1.127,3.979s0.375,3,1.127,3.979c0.751,0.979,1.773,1.47,3.067,1.47
		c1.293,0,2.315-0.49,3.066-1.47S112.607,118.402,112.607,116.729z"/>
	<path d="M124.714,102.008c0.78,0,1.45,0.058,2.011,0.171c0.561,0.114,0.956,0.219,1.184,0.314l-0.485,2.282
		c-0.229-0.114-0.552-0.224-0.97-0.328s-0.932-0.157-1.541-0.157c-1.236,0-2.102,0.338-2.596,1.013
		c-0.495,0.676-0.742,1.583-0.742,2.725v1.284h5.706v2.225h-5.706v12.609h-2.653v-16.175c0-1.902,0.466-3.371,1.398-4.408
		C121.252,102.526,122.717,102.008,124.714,102.008z"/>
	<path d="M132.547,109.312h5.62v2.225h-5.62v6.847c0,0.742,0.057,1.355,0.171,1.84c0.114,0.485,0.285,0.866,0.513,1.142
		c0.229,0.276,0.514,0.471,0.856,0.585s0.742,0.171,1.198,0.171c0.799,0,1.44-0.09,1.926-0.271c0.485-0.181,0.822-0.31,1.013-0.386
		l0.513,2.197c-0.266,0.133-0.732,0.299-1.397,0.499c-0.666,0.199-1.427,0.3-2.282,0.3c-1.008,0-1.84-0.129-2.497-0.386
		c-0.656-0.257-1.184-0.642-1.583-1.155s-0.68-1.146-0.842-1.897c-0.162-0.751-0.243-1.621-0.243-2.61v-13.236l2.653-0.457V109.312z
		"/>
	<path d="M154.169,124.146c-0.533-1.369-1.098-2.934-1.697-4.692s-1.146-3.59-1.641-5.492c-0.495,1.902-1.037,3.733-1.626,5.492
		c-0.59,1.759-1.151,3.323-1.683,4.692h-2.311c-0.875-1.958-1.73-4.193-2.567-6.704c-0.837-2.51-1.626-5.221-2.368-8.13h2.853
		c0.19,0.894,0.418,1.863,0.685,2.909c0.266,1.047,0.547,2.093,0.842,3.139c0.294,1.046,0.604,2.054,0.927,3.023
		c0.323,0.97,0.627,1.816,0.913,2.539c0.323-0.894,0.642-1.84,0.956-2.838c0.313-0.999,0.613-2.007,0.898-3.024
		s0.556-2.016,0.813-2.995s0.48-1.897,0.67-2.753h2.197c0.171,0.855,0.38,1.773,0.627,2.753s0.514,1.978,0.799,2.995
		c0.286,1.018,0.585,2.025,0.899,3.024c0.313,0.998,0.632,1.944,0.956,2.838c0.285-0.723,0.585-1.569,0.898-2.539
		c0.314-0.97,0.623-1.978,0.927-3.023s0.589-2.092,0.856-3.139c0.266-1.046,0.494-2.016,0.685-2.909h2.739
		c-0.742,2.909-1.531,5.62-2.368,8.13c-0.837,2.511-1.693,4.746-2.568,6.704H154.169z"/>
	<path d="M168.649,108.94c1.064,0,1.963,0.138,2.696,0.413c0.732,0.276,1.322,0.666,1.769,1.17s0.766,1.104,0.956,1.798
		s0.286,1.459,0.286,2.296v9.271c-0.229,0.039-0.547,0.091-0.956,0.157s-0.87,0.128-1.383,0.186
		c-0.514,0.057-1.07,0.109-1.669,0.157c-0.599,0.047-1.194,0.071-1.783,0.071c-0.837,0-1.607-0.086-2.311-0.257
		c-0.704-0.172-1.312-0.442-1.826-0.813c-0.514-0.371-0.913-0.86-1.198-1.469c-0.286-0.608-0.428-1.341-0.428-2.197
		c0-0.817,0.167-1.521,0.5-2.11c0.333-0.59,0.784-1.065,1.355-1.427c0.57-0.361,1.236-0.628,1.997-0.799
		c0.76-0.171,1.559-0.257,2.396-0.257c0.266,0,0.542,0.015,0.827,0.043s0.556,0.066,0.813,0.114s0.48,0.09,0.67,0.128
		c0.19,0.038,0.323,0.067,0.399,0.086v-0.742c0-0.438-0.048-0.87-0.143-1.298c-0.096-0.428-0.267-0.808-0.514-1.141
		s-0.585-0.6-1.013-0.799c-0.428-0.2-0.984-0.3-1.669-0.3c-0.875,0-1.64,0.062-2.296,0.186s-1.146,0.252-1.469,0.385l-0.314-2.196
		c0.342-0.152,0.913-0.3,1.712-0.442S167.717,108.94,168.649,108.94z M168.877,122.234c0.627,0,1.184-0.015,1.669-0.043
		s0.889-0.08,1.212-0.156v-4.422c-0.19-0.096-0.499-0.176-0.927-0.243c-0.428-0.066-0.946-0.1-1.555-0.1
		c-0.399,0-0.823,0.028-1.27,0.086c-0.447,0.057-0.856,0.176-1.227,0.356c-0.371,0.181-0.68,0.428-0.927,0.741
		c-0.248,0.314-0.371,0.728-0.371,1.241c0,0.951,0.304,1.612,0.913,1.982C167.004,122.049,167.831,122.234,168.877,122.234z"/>
	<path d="M184.037,108.997c0.228,0,0.489,0.015,0.784,0.043s0.585,0.067,0.87,0.114c0.286,0.048,0.547,0.096,0.785,0.143
		c0.238,0.048,0.414,0.091,0.528,0.128l-0.457,2.312c-0.209-0.076-0.556-0.167-1.041-0.271c-0.485-0.104-1.108-0.157-1.869-0.157
		c-0.495,0-0.984,0.053-1.469,0.157s-0.804,0.176-0.956,0.214v12.467h-2.653v-14.207c0.627-0.228,1.407-0.442,2.339-0.642
		C181.831,109.097,182.876,108.997,184.037,108.997z"/>
	<path d="M188.373,116.757c0-1.312,0.19-2.458,0.57-3.438s0.884-1.792,1.512-2.439c0.627-0.646,1.35-1.131,2.168-1.455
		c0.818-0.322,1.655-0.484,2.51-0.484c1.997,0,3.528,0.623,4.594,1.868c1.064,1.246,1.597,3.144,1.597,5.691
		c0,0.114,0,0.262,0,0.442s-0.01,0.348-0.028,0.499H191.14c0.114,1.541,0.561,2.71,1.341,3.509c0.78,0.799,1.997,1.198,3.652,1.198
		c0.932,0,1.716-0.08,2.354-0.242c0.637-0.161,1.117-0.318,1.44-0.471l0.371,2.226c-0.324,0.171-0.89,0.352-1.697,0.542
		c-0.809,0.189-1.727,0.285-2.753,0.285c-1.294,0-2.411-0.195-3.353-0.585s-1.716-0.927-2.325-1.612
		c-0.609-0.685-1.061-1.497-1.355-2.438S188.373,117.879,188.373,116.757z M198.558,115.302c0.019-1.198-0.281-2.183-0.898-2.952
		c-0.618-0.771-1.47-1.155-2.554-1.155c-0.608,0-1.146,0.119-1.611,0.356c-0.467,0.238-0.861,0.547-1.185,0.927
		c-0.323,0.381-0.575,0.818-0.756,1.312c-0.181,0.495-0.299,0.998-0.356,1.512H198.558z"/>
	<path d="M217.528,102.008c0.78,0,1.45,0.058,2.012,0.171c0.561,0.114,0.955,0.219,1.184,0.314l-0.485,2.282
		c-0.228-0.114-0.552-0.224-0.97-0.328s-0.932-0.157-1.54-0.157c-1.236,0-2.102,0.338-2.597,1.013
		c-0.494,0.676-0.741,1.583-0.741,2.725v1.284h5.705v2.225h-5.705v12.609h-2.653v-16.175c0-1.902,0.466-3.371,1.397-4.408
		C214.066,102.526,215.531,102.008,217.528,102.008z"/>
	<path d="M235.563,116.729c0,1.18-0.172,2.244-0.514,3.195c-0.343,0.951-0.823,1.769-1.44,2.453
		c-0.618,0.685-1.355,1.213-2.211,1.583c-0.856,0.371-1.788,0.557-2.796,0.557c-1.009,0-1.94-0.186-2.796-0.557
		c-0.855-0.37-1.593-0.898-2.211-1.583s-1.099-1.502-1.44-2.453c-0.343-0.951-0.514-2.016-0.514-3.195
		c0-1.16,0.171-2.221,0.514-3.181c0.342-0.961,0.822-1.783,1.44-2.468s1.355-1.213,2.211-1.584c0.855-0.37,1.787-0.556,2.796-0.556
		c1.008,0,1.939,0.186,2.796,0.556c0.855,0.371,1.593,0.899,2.211,1.584c0.617,0.685,1.098,1.507,1.44,2.468
		C235.392,114.508,235.563,115.568,235.563,116.729z M232.796,116.729c0-1.674-0.376-3-1.127-3.979s-1.773-1.47-3.066-1.47
		c-1.294,0-2.315,0.49-3.067,1.47c-0.751,0.979-1.127,2.306-1.127,3.979s0.376,3,1.127,3.979c0.752,0.979,1.773,1.47,3.067,1.47
		c1.293,0,2.315-0.49,3.066-1.47S232.796,118.402,232.796,116.729z"/>
	<path d="M244.59,108.997c0.229,0,0.489,0.015,0.784,0.043s0.585,0.067,0.87,0.114c0.285,0.048,0.547,0.096,0.785,0.143
		c0.237,0.048,0.413,0.091,0.527,0.128l-0.456,2.312c-0.21-0.076-0.557-0.167-1.042-0.271c-0.484-0.104-1.107-0.157-1.868-0.157
		c-0.495,0-0.984,0.053-1.47,0.157c-0.484,0.104-0.804,0.176-0.955,0.214v12.467h-2.653v-14.207
		c0.628-0.228,1.407-0.442,2.339-0.642C242.383,109.097,243.43,108.997,244.59,108.997z"/>
	<path fill="#3B4B9F" d="M271.209,115.015l-0.371,2.197c-0.828,4.965-3.481,7.162-8.075,7.162c-0.685,0-1.684-0.057-2.711-0.2
		l-0.885,5.051c-0.057,0.314-0.143,0.571-0.685,0.571h-2.625c-0.313,0-0.542-0.172-0.457-0.571l3.481-19.859
		c0.086-0.428,0.229-0.6,0.913-0.771c1.854-0.456,4.052-0.742,5.878-0.742c3.823,0,5.679,2.255,5.679,5.508
		C271.352,113.873,271.294,114.444,271.209,115.015z M265.131,110.935c-1.027,0-2.226,0.086-2.796,0.199l-1.741,9.959
		c0.771,0.114,2.026,0.199,2.711,0.199c2.454,0,3.396-1.883,3.767-4.08l0.371-2.197c0.114-0.628,0.171-1.198,0.171-1.684
		C267.613,111.791,266.985,110.935,265.131,110.935z"/>
	<path fill="#3B4B9F" d="M287.419,114.958l-0.429,2.312c-0.885,4.708-3.566,7.104-8.046,7.104c-3.881,0-5.707-2.739-5.707-5.735
		c0-0.456,0.028-0.913,0.114-1.369l0.428-2.312c0.856-4.68,3.596-7.105,8.075-7.105c3.909,0,5.707,2.625,5.707,5.621
		C287.562,113.959,287.504,114.473,287.419,114.958z M281.283,111.105c-1.74,0-3.224,1.027-3.737,3.853l-0.428,2.312
		c-0.086,0.456-0.114,0.884-0.114,1.255c0,1.684,0.827,2.597,2.511,2.597c1.997,0,3.225-1.198,3.709-3.852l0.429-2.312
		c0.085-0.457,0.114-0.885,0.114-1.256C283.767,112.019,282.967,111.105,281.283,111.105z"/>
	<path fill="#3B4B9F" d="M311.808,108.053c0.399,0,0.656,0.143,0.457,0.656l-4.851,13.126c-0.628,1.712-1.228,2.396-2.968,2.396
		h-0.771c-1.541,0-2.197-0.742-2.312-2.226l-0.713-8.731c0-0.114,0-0.143-0.058-0.143c-0.057,0-0.057,0.028-0.114,0.143
		l-3.795,8.731c-0.656,1.483-1.569,2.226-3.109,2.226h-0.771c-1.741,0-2.083-0.685-2.112-2.396l-0.285-13.126
		c0-0.343,0.114-0.656,0.685-0.656h2.654c0.285,0,0.428,0.229,0.428,0.514l-0.257,12.069c0,0.286,0,0.399,0.086,0.399
		c0.085,0,0.143-0.113,0.257-0.399l4.052-9.587c0.456-1.113,0.855-1.228,1.826-1.228h1.997c0.971,0,1.284,0.114,1.37,1.228
		l0.685,9.587c0.028,0.286,0.028,0.399,0.114,0.399c0.085,0,0.143-0.143,0.229-0.399l3.938-12.069
		c0.085-0.257,0.199-0.514,0.599-0.514H311.808z"/>
	<path fill="#3B4B9F" d="M326.621,115.329l-0.229,1.369c-0.086,0.457-0.285,0.714-0.685,0.714h-9.302
		c-0.058,0.399-0.144,0.771-0.144,1.17c0,1.54,0.8,2.567,2.911,2.567c2.083,0,4.052-0.199,5.278-0.313
		c0.371-0.028,0.6,0.057,0.542,0.428l-0.342,1.884c-0.086,0.456-0.172,0.656-0.714,0.741c-1.911,0.343-3.167,0.485-5.735,0.485
		c-2.539,0-5.621-1.427-5.621-5.735c0-0.514,0.028-1.113,0.143-1.712l0.314-1.77c0.941-5.336,3.767-7.305,8.132-7.305
		c3.795,0,5.593,2.512,5.593,5.85C326.764,114.216,326.707,114.786,326.621,115.329z M320.601,111.105
		c-2.283,0-3.339,1.541-3.71,3.624h6.05c0.057-0.371,0.114-0.713,0.114-1.084C323.055,111.99,322.17,111.105,320.601,111.105z"/>
	<path fill="#3B4B9F" d="M339.212,108.424l-0.371,2.054c-0.057,0.314-0.2,0.571-0.656,0.571c-0.913,0-2.169,0.057-4.108,1.027
		l-2.026,11.471c-0.057,0.313-0.143,0.599-0.685,0.599h-2.625c-0.343,0-0.543-0.171-0.457-0.599l2.625-14.924
		c0.058-0.313,0.229-0.57,0.656-0.57h2.482c0.399,0,0.571,0.143,0.485,0.57l-0.114,0.6c1.627-1.256,3.139-1.37,4.337-1.37
		c0.371,0,0.457,0.2,0.457,0.457C339.212,108.366,339.212,108.395,339.212,108.424z"/>
	<path d="M358.751,123.718c-0.608,0.152-1.412,0.313-2.41,0.485c-0.999,0.171-2.154,0.257-3.467,0.257
		c-1.141,0-2.102-0.167-2.881-0.5c-0.78-0.332-1.408-0.803-1.883-1.412c-0.476-0.608-0.818-1.326-1.027-2.153
		s-0.313-1.745-0.313-2.753v-8.33h2.653v7.759c0,1.808,0.285,3.101,0.855,3.88c0.57,0.78,1.53,1.17,2.881,1.17
		c0.286,0,0.58-0.009,0.885-0.028c0.304-0.019,0.589-0.043,0.855-0.071s0.509-0.058,0.728-0.086s0.376-0.062,0.471-0.1v-12.523
		h2.653V123.718z"/>
	<path d="M366.639,122.234c1.084,0,1.887-0.143,2.41-0.428s0.785-0.742,0.785-1.369c0-0.646-0.257-1.16-0.771-1.541
		c-0.514-0.38-1.36-0.808-2.539-1.283c-0.57-0.229-1.117-0.461-1.641-0.699c-0.523-0.237-0.975-0.519-1.354-0.842
		c-0.381-0.323-0.686-0.713-0.913-1.17c-0.229-0.456-0.343-1.017-0.343-1.683c0-1.312,0.485-2.354,1.455-3.124
		s2.292-1.155,3.966-1.155c0.418,0,0.836,0.023,1.255,0.071c0.418,0.048,0.809,0.104,1.17,0.171c0.36,0.067,0.68,0.139,0.955,0.214
		c0.275,0.076,0.49,0.143,0.643,0.2l-0.485,2.282c-0.285-0.152-0.732-0.31-1.341-0.471c-0.608-0.162-1.341-0.243-2.196-0.243
		c-0.742,0-1.389,0.148-1.94,0.442c-0.552,0.295-0.827,0.756-0.827,1.384c0,0.323,0.062,0.609,0.186,0.855
		c0.123,0.248,0.313,0.471,0.57,0.671c0.257,0.199,0.575,0.385,0.956,0.557c0.38,0.171,0.837,0.352,1.369,0.542
		c0.703,0.267,1.331,0.527,1.883,0.784s1.022,0.557,1.412,0.898c0.39,0.343,0.689,0.756,0.898,1.241s0.314,1.079,0.314,1.783
		c0,1.369-0.51,2.406-1.526,3.109c-1.018,0.704-2.468,1.056-4.351,1.056c-1.312,0-2.34-0.109-3.081-0.328
		c-0.742-0.219-1.246-0.386-1.512-0.499l0.484-2.282c0.304,0.113,0.789,0.285,1.455,0.513
		C364.65,122.12,365.535,122.234,366.639,122.234z"/>
	<path d="M374.964,116.757c0-1.312,0.189-2.458,0.57-3.438c0.38-0.979,0.885-1.792,1.512-2.439c0.628-0.646,1.351-1.131,2.169-1.455
		c0.817-0.322,1.654-0.484,2.51-0.484c1.997,0,3.528,0.623,4.594,1.868c1.064,1.246,1.597,3.144,1.597,5.691
		c0,0.114,0,0.262,0,0.442s-0.01,0.348-0.028,0.499H377.73c0.114,1.541,0.562,2.71,1.341,3.509c0.78,0.799,1.997,1.198,3.652,1.198
		c0.932,0,1.716-0.08,2.354-0.242c0.637-0.161,1.117-0.318,1.44-0.471l0.371,2.226c-0.324,0.171-0.89,0.352-1.697,0.542
		c-0.809,0.189-1.727,0.285-2.753,0.285c-1.294,0-2.411-0.195-3.353-0.585s-1.717-0.927-2.325-1.612
		c-0.608-0.685-1.061-1.497-1.354-2.438C375.11,118.911,374.964,117.879,374.964,116.757z M385.148,115.302
		c0.019-1.198-0.281-2.183-0.898-2.952c-0.618-0.771-1.47-1.155-2.554-1.155c-0.608,0-1.146,0.119-1.611,0.356
		c-0.467,0.238-0.861,0.547-1.185,0.927c-0.323,0.381-0.575,0.818-0.756,1.312c-0.181,0.495-0.3,0.998-0.356,1.512H385.148z"/>
	<path d="M396.967,108.997c0.229,0,0.489,0.015,0.784,0.043s0.585,0.067,0.87,0.114c0.285,0.048,0.547,0.096,0.785,0.143
		c0.237,0.048,0.413,0.091,0.527,0.128l-0.456,2.312c-0.21-0.076-0.557-0.167-1.042-0.271c-0.484-0.104-1.107-0.157-1.868-0.157
		c-0.495,0-0.984,0.053-1.47,0.157c-0.484,0.104-0.804,0.176-0.955,0.214v12.467h-2.653v-14.207
		c0.628-0.228,1.407-0.442,2.339-0.642C394.76,109.097,395.807,108.997,396.967,108.997z"/>
	<path d="M406.142,122.234c1.084,0,1.887-0.143,2.41-0.428s0.785-0.742,0.785-1.369c0-0.646-0.257-1.16-0.771-1.541
		c-0.514-0.38-1.36-0.808-2.539-1.283c-0.57-0.229-1.117-0.461-1.641-0.699c-0.523-0.237-0.975-0.519-1.354-0.842
		c-0.381-0.323-0.686-0.713-0.913-1.17c-0.229-0.456-0.343-1.017-0.343-1.683c0-1.312,0.485-2.354,1.455-3.124
		s2.292-1.155,3.966-1.155c0.418,0,0.836,0.023,1.255,0.071c0.418,0.048,0.809,0.104,1.17,0.171c0.36,0.067,0.68,0.139,0.955,0.214
		c0.275,0.076,0.49,0.143,0.643,0.2l-0.485,2.282c-0.285-0.152-0.732-0.31-1.341-0.471c-0.608-0.162-1.341-0.243-2.196-0.243
		c-0.742,0-1.389,0.148-1.94,0.442c-0.552,0.295-0.827,0.756-0.827,1.384c0,0.323,0.062,0.609,0.186,0.855
		c0.123,0.248,0.313,0.471,0.57,0.671c0.257,0.199,0.575,0.385,0.956,0.557c0.38,0.171,0.837,0.352,1.369,0.542
		c0.703,0.267,1.331,0.527,1.883,0.784s1.022,0.557,1.412,0.898c0.39,0.343,0.689,0.756,0.898,1.241s0.314,1.079,0.314,1.783
		c0,1.369-0.51,2.406-1.526,3.109c-1.018,0.704-2.468,1.056-4.351,1.056c-1.312,0-2.34-0.109-3.081-0.328
		c-0.742-0.219-1.246-0.386-1.512-0.499l0.484-2.282c0.304,0.113,0.789,0.285,1.455,0.513
		C404.153,122.12,405.038,122.234,406.142,122.234z"/>
</g>
<rect x="-175.391" y="396" fill="none" width="164.992" height="64.497"/>
<text transform="matrix(1 0 0 1 -160.1428 420.8302)" fill="#3B4B9F" font-family="'Ubuntu-Medium'" font-size="32">features:</text>
<circle fill="#C6C6C5" stroke="#3B4B9F" stroke-miterlimit="10" cx="12.35" cy="408.565" r="14.249"/>
<circle fill="#C6C6C5" stroke="#3B4B9F" stroke-miterlimit="10" cx="59.255" cy="408.565" r="14.249"/>
<circle fill="#3B4B9F" stroke="#3B4B9F" stroke-miterlimit="10" cx="106.16" cy="408.565" r="14.249"/>
<circle fill="#C6C6C5" stroke="#3B4B9F" stroke-miterlimit="10" cx="153.065" cy="408.565" r="14.249"/>
<circle fill="#C6C6C5" stroke="#3B4B9F" stroke-miterlimit="10" cx="199.97" cy="408.565" r="14.249"/>
<circle fill="#C6C6C5" stroke="#3B4B9F" stroke-miterlimit="10" cx="246.876" cy="408.565" r="14.249"/>
<circle fill="#C6C6C5" stroke="#3B4B9F" stroke-miterlimit="10" cx="293.781" cy="408.565" r="14.249"/>
<circle fill="#C6C6C5" stroke="#3B4B9F" stroke-miterlimit="10" cx="340.686" cy="408.565" r="14.249"/>
<circle fill="#C6C6C5" stroke="#3B4B9F" stroke-miterlimit="10" cx="387.591" cy="408.565" r="14.249"/>
</svg>
