<?xml version="1.0" encoding="utf-8"?>
<!-- Generator: Adobe Illustrator 17.0.2, SVG Export Plug-In . SVG Version: 6.00 Build 0)  -->
<!DOCTYPE svg PUBLIC "-//W3C//DTD SVG 1.1//EN" "http://www.w3.org/Graphics/SVG/1.1/DTD/svg11.dtd">
<svg version="1.1" id="Layer_1" xmlns="http://www.w3.org/2000/svg" xmlns:xlink="http://www.w3.org/1999/xlink" x="0px" y="0px"
	 width="415px" height="132px" viewBox="0 0 415 132" enable-background="new 0 0 415 132" xml:space="preserve">
<rect fill="#FFFFFF" width="415" height="132"/>
<path fill="#3B4B9F" d="M218.717,78.735c-1.261,0-2.628-0.033-4.105-0.095c-1.477-0.063-2.97-0.156-4.48-0.281
	c-1.51-0.128-2.989-0.298-4.435-0.519c-1.447-0.221-2.735-0.488-3.868-0.802l15.19-63.399c2.64-0.628,5.58-1.051,8.82-1.272
	s6.147-0.33,8.727-0.33c3.207,0,6.147,0.267,8.822,0.802c2.672,0.535,4.966,1.384,6.887,2.547c1.917,1.163,3.426,2.689,4.529,4.575
	c1.098,1.886,1.649,4.152,1.649,6.792c0,3.838-1.147,7.217-3.442,10.143c-2.298,2.924-5.457,5.11-9.483,6.557
	c2.705,1.007,4.891,2.547,6.557,4.622c1.668,2.077,2.5,4.624,2.5,7.643c0,4.34-0.882,7.987-2.64,10.943
	c-1.763,2.956-4.168,5.331-7.217,7.122c-3.052,1.793-6.638,3.068-10.755,3.821C227.851,78.358,223.434,78.735,218.717,78.735z
	 M217.868,47.508l-5.473,23.208c0.691,0.128,1.73,0.237,3.114,0.33c1.382,0.095,3.142,0.142,5.282,0.142
	c2.326,0,4.812-0.172,7.452-0.519c2.642-0.344,5.063-1.037,7.266-2.075c2.2-1.04,4.04-2.5,5.519-4.389
	c1.477-1.886,2.217-4.401,2.217-7.548c0-3.079-1.102-5.377-3.303-6.887c-2.203-1.507-5.754-2.263-10.66-2.263L217.868,47.508
	L217.868,47.508z M219.659,40.337h8.964c2.075,0,4.198-0.172,6.368-0.519c2.17-0.344,4.149-0.975,5.943-1.886
	s3.27-2.154,4.433-3.726c1.163-1.572,1.747-3.587,1.747-6.038c0-3.207-1.196-5.44-3.587-6.699s-6.036-1.886-10.943-1.886
	c-1.635,0-3.24,0.063-4.81,0.188c-1.575,0.126-2.642,0.251-3.207,0.377L219.659,40.337z"/>
<path fill="#3B4B9F" d="M265.768,78.075h-8.773l11.792-49.058h8.773L265.768,78.075z M275.958,20.148
	c-1.449,0-2.659-0.44-3.633-1.321c-0.977-0.879-1.463-2.105-1.463-3.68c0-2.012,0.628-3.598,1.886-4.763
	c1.258-1.163,2.675-1.744,4.247-1.744c1.447,0,2.672,0.456,3.68,1.368c1.005,0.912,1.509,2.186,1.509,3.819
	c0,1.889-0.661,3.414-1.982,4.577C278.881,19.567,277.467,20.148,275.958,20.148z"/>
<path fill="#3B4B9F" d="M294.896,79.396c-4.717,0-8.178-1.037-10.378-3.114c-2.203-2.075-3.303-5.094-3.303-9.057
	c0-2.577,0.44-5.88,1.321-9.906l10.094-41.982l9.152-1.51l-3.68,15.19H314.8l-1.791,7.359h-16.7l-5.189,21.698
	c-0.754,2.956-1.133,5.536-1.133,7.736c0,2.075,0.568,3.57,1.7,4.482c1.13,0.912,3.019,1.368,5.659,1.368
	c1.823,0,3.617-0.298,5.377-0.898c1.761-0.595,3.114-1.147,4.056-1.649l0.661,7.452c-0.942,0.565-2.547,1.179-4.81,1.84
	C300.366,79.065,297.787,79.396,294.896,79.396z"/>
<path fill="#484748" stroke="#484748" stroke-width="0.2" stroke-miterlimit="10" d="M38.803,78.037
	c-3.257,0.342-11.659,0.428-16.717,0.428c-12.002,0-18.261-4.542-18.261-15.946V29.515c0-11.404,6.259-15.946,18.261-15.946
	c5.059,0,13.117,0.17,16.717,0.514c0.515,0.086,0.857,0.686,0.857,1.2v4.287c0,0.6-0.342,1.028-0.942,1.028H22.172
	c-9.087,0-10.546,2.4-10.546,8.917V41.43h26.32c0.943,0,1.714,0.772,1.714,1.714v3.259c0,0.942-0.771,1.714-1.714,1.714h-26.32
	v14.402c0,6.517,1.458,8.917,10.546,8.917h16.546c0.6,0,0.942,0.428,0.942,1.028v4.373C39.66,77.351,39.318,77.951,38.803,78.037z"
	/>
<path fill="#484748" stroke="#484748" stroke-width="0.2" stroke-miterlimit="10" d="M84.006,32.771L72.432,73.579
	c-1.114,3.859-4.03,4.887-7.716,4.887c-3.685,0-6.601-1.028-7.715-4.887L45.428,32.771c-0.086-0.256-0.086-0.428-0.086-0.6
	c0-0.856,0.514-1.456,1.372-1.456h4.715c0.686,0,1.286,0.514,1.629,1.628l9.858,37.379c0.515,2.056,0.943,2.486,1.8,2.486
	c0.772,0,1.286-0.43,1.801-2.486l9.858-37.379c0.343-1.114,0.943-1.628,1.629-1.628h4.715c0.858,0,1.372,0.6,1.372,1.456
	C84.092,32.343,84.092,32.515,84.006,32.771z"/>
<path fill="#484748" stroke="#484748" stroke-width="0.2" stroke-miterlimit="10" d="M123.894,56.69h-28.72v1.2
	c0,10.201,4.03,13.974,11.917,13.974c4.973,0,11.317-0.342,15.26-0.942c0.171,0,0.257,0,0.429,0c0.685,0,1.371,0.342,1.371,1.2
	v2.914c0,1.114-0.343,1.714-1.714,1.972c-4.887,0.942-9.602,1.456-15.346,1.456c-9.859,0-19.461-4.629-19.461-20.575v-7.715
	c0-12.26,6.773-20.061,19.033-20.061c12.516,0,18.861,7.887,18.861,20.061v4.629C125.524,55.918,124.923,56.69,123.894,56.69z
	 M117.893,50.175c0-9.687-3.687-13.46-11.231-13.46c-7.373,0-11.489,4.201-11.489,13.46v0.77h22.719L117.893,50.175L117.893,50.175z
	"/>
<path fill="#484748" stroke="#484748" stroke-width="0.2" stroke-miterlimit="10" d="M155.19,36.63c-3.944,0-7.544,1.028-11.831,3.6
	v35.921c0,0.858-0.771,1.714-1.714,1.714h-4.201c-0.858,0-1.629-0.77-1.629-1.714V32.429c0-0.944,0.686-1.714,1.629-1.714h4.028
	c0.943,0,1.629,0.77,1.629,1.714v1.8c4.287-3,8.23-4.114,12.088-4.114c1.2,0,1.8,0.514,1.8,1.542v3.514
	C156.99,36.115,156.39,36.63,155.19,36.63z"/>
<path fill="#484748" stroke="#484748" stroke-width="0.2" stroke-miterlimit="10" d="M201.66,32.771l-14.146,49.381
	c-2.657,9.259-5.829,12.688-15.688,12.688c-2.4,0-5.401-0.342-7.201-0.77c-1.029-0.258-1.801-0.514-1.801-1.372v-3.173
	c0-0.942,0.686-1.372,1.629-1.372c0.086,0,0.172,0,0.257,0c1.886,0.172,5.744,0.516,7.63,0.516c4.887,0,7.03-1.286,8.487-7.289
	l0.858-3.514h-1.2c-2.572,0-4.802-0.6-6.345-5.915l-11.402-39.18c-0.086-0.172-0.086-0.428-0.086-0.6
	c0-0.856,0.514-1.456,1.543-1.456h4.715c0.686,0,1.286,0.684,1.458,1.37l10.116,37.207c0.428,1.714,1.028,1.886,1.628,1.886h1.372
	l10.458-39.18c0.172-0.684,0.858-1.284,1.629-1.284h4.801c0.857,0,1.372,0.6,1.372,1.456
	C201.746,32.343,201.746,32.599,201.66,32.771z"/>
<g enable-background="new    ">
	<path d="M8.373,102.008c0.78,0,1.45,0.057,2.011,0.172c0.561,0.113,0.956,0.219,1.184,0.314l-0.485,2.281
		c-0.229-0.113-0.552-0.223-0.97-0.328c-0.418-0.104-0.932-0.156-1.541-0.156c-1.236,0-2.102,0.338-2.596,1.012
		c-0.495,0.676-0.742,1.584-0.742,2.725v1.283h5.706v2.227H5.235v12.609H2.582v-16.176c0-1.902,0.466-3.371,1.398-4.408
		C4.911,102.527,6.376,102.008,8.373,102.008z"/>
	<path d="M26.687,116.729c0,1.18-0.171,2.244-0.513,3.195s-0.823,1.77-1.441,2.453c-0.618,0.686-1.355,1.213-2.211,1.584
		s-1.788,0.557-2.795,0.557c-1.008,0-1.94-0.186-2.796-0.557s-1.593-0.898-2.211-1.584c-0.618-0.684-1.099-1.502-1.441-2.453
		s-0.513-2.016-0.513-3.195c0-1.16,0.171-2.221,0.513-3.182c0.342-0.959,0.823-1.781,1.441-2.467
		c0.618-0.686,1.355-1.213,2.211-1.584s1.788-0.555,2.796-0.555c1.008,0,1.939,0.184,2.795,0.555s1.593,0.898,2.211,1.584
		c0.618,0.686,1.099,1.508,1.441,2.467C26.516,114.508,26.687,115.568,26.687,116.729z M23.92,116.729c0-1.674-0.375-3-1.127-3.98
		c-0.751-0.979-1.773-1.469-3.066-1.469c-1.294,0-2.316,0.49-3.067,1.469c-0.751,0.98-1.127,2.307-1.127,3.98s0.375,3,1.127,3.98
		c0.751,0.979,1.773,1.469,3.067,1.469c1.293,0,2.315-0.49,3.066-1.469C23.544,119.729,23.92,118.402,23.92,116.729z"/>
	<path d="M35.902,108.998c0.228,0,0.489,0.014,0.784,0.043c0.295,0.027,0.585,0.066,0.87,0.113c0.286,0.049,0.547,0.096,0.785,0.143
		c0.238,0.049,0.414,0.09,0.528,0.129l-0.457,2.311c-0.209-0.076-0.556-0.166-1.041-0.271c-0.485-0.104-1.108-0.156-1.869-0.156
		c-0.495,0-0.984,0.053-1.469,0.156c-0.485,0.105-0.804,0.176-0.956,0.215v12.467h-2.653v-14.207
		c0.627-0.229,1.407-0.443,2.339-0.643C33.695,109.098,34.741,108.998,35.902,108.998z"/>
	<path d="M53.247,123.719c-0.609,0.152-1.412,0.312-2.411,0.484s-2.154,0.256-3.466,0.256c-1.141,0-2.102-0.166-2.881-0.498
		c-0.78-0.332-1.408-0.803-1.883-1.412s-0.818-1.326-1.027-2.154c-0.209-0.828-0.314-1.744-0.314-2.754v-8.33h2.653v7.76
		c0,1.809,0.285,3.102,0.856,3.881c0.57,0.779,1.531,1.17,2.881,1.17c0.285,0,0.58-0.01,0.884-0.029
		c0.304-0.018,0.589-0.043,0.856-0.07c0.266-0.029,0.508-0.059,0.728-0.086c0.218-0.029,0.375-0.062,0.471-0.1v-12.525h2.653
		V123.719z"/>
	<path d="M57.811,109.74c0.608-0.152,1.412-0.314,2.411-0.486c0.999-0.17,2.154-0.256,3.466-0.256c0.951,0,1.75,0.127,2.396,0.385
		c0.646,0.256,1.188,0.633,1.626,1.127c0.133-0.096,0.342-0.229,0.627-0.4c0.285-0.17,0.637-0.336,1.056-0.498
		c0.418-0.162,0.884-0.305,1.398-0.428c0.513-0.125,1.065-0.186,1.654-0.186c1.141,0,2.073,0.166,2.796,0.498
		c0.723,0.334,1.288,0.805,1.697,1.412c0.409,0.609,0.685,1.332,0.828,2.168c0.143,0.838,0.214,1.75,0.214,2.74v8.33h-2.653v-7.76
		c0-0.875-0.042-1.627-0.128-2.254c-0.085-0.627-0.247-1.15-0.485-1.568c-0.238-0.42-0.561-0.729-0.97-0.928
		c-0.409-0.199-0.937-0.301-1.583-0.301c-0.894,0-1.631,0.119-2.211,0.357s-0.975,0.451-1.184,0.643
		c0.152,0.494,0.266,1.037,0.343,1.625c0.076,0.59,0.114,1.209,0.114,1.855v8.33h-2.653v-7.76c0-0.875-0.048-1.627-0.143-2.254
		c-0.096-0.627-0.262-1.15-0.5-1.568c-0.238-0.42-0.561-0.729-0.97-0.928c-0.409-0.199-0.927-0.301-1.555-0.301
		c-0.266,0-0.552,0.012-0.855,0.029c-0.305,0.02-0.595,0.043-0.87,0.072c-0.276,0.027-0.528,0.061-0.756,0.1
		c-0.228,0.037-0.38,0.066-0.456,0.086v12.523h-2.653V109.74z"/>
	<path d="M92.415,122.234c1.084,0,1.887-0.143,2.41-0.428s0.785-0.742,0.785-1.369c0-0.646-0.257-1.16-0.77-1.541
		c-0.514-0.381-1.36-0.809-2.539-1.283c-0.571-0.229-1.118-0.461-1.641-0.699s-0.975-0.518-1.355-0.842
		c-0.38-0.322-0.685-0.713-0.913-1.17c-0.229-0.455-0.343-1.018-0.343-1.682c0-1.312,0.485-2.355,1.455-3.125
		c0.97-0.77,2.292-1.154,3.965-1.154c0.418,0,0.837,0.023,1.255,0.07c0.418,0.047,0.808,0.105,1.169,0.172s0.68,0.137,0.956,0.213
		c0.275,0.076,0.489,0.143,0.642,0.199l-0.485,2.283c-0.285-0.152-0.732-0.309-1.341-0.471c-0.609-0.162-1.341-0.242-2.197-0.242
		c-0.742,0-1.388,0.146-1.94,0.441s-0.827,0.756-0.827,1.385c0,0.322,0.062,0.607,0.186,0.855c0.124,0.248,0.313,0.471,0.57,0.67
		s0.575,0.385,0.956,0.557c0.38,0.172,0.836,0.352,1.369,0.541c0.704,0.268,1.331,0.529,1.883,0.785
		c0.551,0.258,1.022,0.557,1.412,0.898c0.39,0.342,0.689,0.756,0.899,1.242c0.209,0.484,0.313,1.078,0.313,1.781
		c0,1.371-0.509,2.406-1.526,3.111c-1.018,0.703-2.467,1.055-4.35,1.055c-1.312,0-2.339-0.109-3.081-0.328s-1.246-0.385-1.512-0.5
		l0.485-2.281c0.304,0.113,0.789,0.285,1.455,0.514C90.427,122.121,91.312,122.234,92.415,122.234z"/>
	<path d="M114.781,116.729c0,1.18-0.171,2.244-0.513,3.195s-0.823,1.77-1.441,2.453c-0.618,0.686-1.355,1.213-2.211,1.584
		s-1.788,0.557-2.795,0.557c-1.008,0-1.94-0.186-2.796-0.557s-1.593-0.898-2.211-1.584c-0.618-0.684-1.099-1.502-1.441-2.453
		s-0.513-2.016-0.513-3.195c0-1.16,0.171-2.221,0.513-3.182c0.342-0.959,0.823-1.781,1.441-2.467
		c0.618-0.686,1.355-1.213,2.211-1.584s1.788-0.555,2.796-0.555c1.008,0,1.939,0.184,2.795,0.555s1.593,0.898,2.211,1.584
		c0.618,0.686,1.099,1.508,1.441,2.467C114.61,114.508,114.781,115.568,114.781,116.729z M112.014,116.729
		c0-1.674-0.375-3-1.127-3.98c-0.751-0.979-1.773-1.469-3.066-1.469c-1.294,0-2.316,0.49-3.067,1.469
		c-0.751,0.98-1.127,2.307-1.127,3.98s0.375,3,1.127,3.98c0.751,0.979,1.773,1.469,3.067,1.469c1.293,0,2.315-0.49,3.066-1.469
		C111.638,119.729,112.014,118.402,112.014,116.729z"/>
	<path d="M124.309,102.008c0.78,0,1.45,0.057,2.011,0.172c0.561,0.113,0.956,0.219,1.184,0.314l-0.485,2.281
		c-0.229-0.113-0.552-0.223-0.97-0.328c-0.418-0.104-0.932-0.156-1.541-0.156c-1.236,0-2.102,0.338-2.596,1.012
		c-0.495,0.676-0.742,1.584-0.742,2.725v1.283h5.706v2.227h-5.706v12.609h-2.653v-16.176c0-1.902,0.466-3.371,1.398-4.408
		C120.848,102.527,122.312,102.008,124.309,102.008z"/>
	<path d="M132.011,109.311h5.62v2.227h-5.62v6.846c0,0.742,0.057,1.355,0.171,1.84c0.114,0.486,0.285,0.867,0.513,1.143
		c0.229,0.275,0.514,0.471,0.856,0.584s0.742,0.172,1.198,0.172c0.799,0,1.44-0.09,1.926-0.271c0.485-0.18,0.822-0.309,1.013-0.385
		l0.513,2.195c-0.267,0.135-0.732,0.301-1.397,0.5c-0.666,0.199-1.427,0.299-2.282,0.299c-1.008,0-1.84-0.127-2.497-0.385
		c-0.656-0.256-1.184-0.641-1.583-1.154s-0.68-1.146-0.842-1.898c-0.162-0.75-0.243-1.621-0.243-2.609v-13.236l2.653-0.457V109.311z
		"/>
	<path d="M153.122,124.146c-0.532-1.369-1.098-2.934-1.697-4.693c-0.599-1.76-1.146-3.59-1.64-5.492
		c-0.495,1.902-1.037,3.732-1.627,5.492c-0.589,1.76-1.15,3.324-1.683,4.693h-2.311c-0.875-1.959-1.731-4.193-2.567-6.705
		c-0.837-2.51-1.626-5.221-2.368-8.131h2.853c0.19,0.895,0.418,1.865,0.685,2.91c0.266,1.047,0.547,2.094,0.842,3.139
		c0.294,1.047,0.604,2.055,0.928,3.023c0.322,0.971,0.627,1.816,0.912,2.539c0.323-0.893,0.643-1.84,0.956-2.838
		s0.613-2.006,0.898-3.023s0.557-2.016,0.813-2.996c0.257-0.979,0.479-1.896,0.67-2.754h2.196c0.172,0.857,0.381,1.775,0.628,2.754
		c0.247,0.98,0.514,1.979,0.799,2.996s0.585,2.025,0.898,3.023c0.314,0.998,0.633,1.945,0.956,2.838
		c0.285-0.723,0.585-1.568,0.898-2.539c0.314-0.969,0.623-1.977,0.928-3.023c0.304-1.045,0.589-2.092,0.855-3.139
		c0.266-1.045,0.494-2.016,0.685-2.91h2.738c-0.741,2.91-1.53,5.621-2.367,8.131c-0.837,2.512-1.693,4.746-2.567,6.705H153.122z"/>
	<path d="M167.957,108.941c1.064,0,1.963,0.137,2.695,0.412c0.732,0.277,1.322,0.666,1.77,1.17c0.446,0.504,0.765,1.104,0.955,1.797
		c0.19,0.695,0.285,1.461,0.285,2.297v9.271c-0.228,0.039-0.547,0.092-0.955,0.158c-0.409,0.066-0.87,0.127-1.384,0.186
		c-0.514,0.057-1.07,0.107-1.669,0.156c-0.6,0.047-1.193,0.07-1.783,0.07c-0.837,0-1.607-0.084-2.311-0.256
		c-0.704-0.172-1.312-0.441-1.826-0.812s-0.913-0.861-1.198-1.471c-0.285-0.607-0.428-1.34-0.428-2.195
		c0-0.818,0.166-1.521,0.499-2.111s0.785-1.064,1.355-1.426s1.236-0.629,1.997-0.799c0.761-0.172,1.56-0.258,2.396-0.258
		c0.266,0,0.542,0.014,0.827,0.043s0.557,0.066,0.812,0.113c0.257,0.049,0.48,0.092,0.671,0.129
		c0.189,0.039,0.323,0.066,0.399,0.086v-0.742c0-0.438-0.048-0.869-0.143-1.297c-0.096-0.428-0.267-0.809-0.514-1.143
		c-0.247-0.332-0.585-0.598-1.013-0.799c-0.428-0.199-0.984-0.299-1.669-0.299c-0.875,0-1.641,0.062-2.297,0.186
		c-0.655,0.123-1.146,0.252-1.469,0.385l-0.313-2.197c0.342-0.15,0.912-0.299,1.711-0.441S167.024,108.941,167.957,108.941z
		 M168.184,122.234c0.628,0,1.185-0.014,1.669-0.043c0.485-0.027,0.89-0.08,1.213-0.156v-4.422c-0.19-0.096-0.499-0.176-0.927-0.242
		c-0.429-0.066-0.946-0.1-1.556-0.1c-0.399,0-0.822,0.027-1.27,0.084c-0.446,0.059-0.855,0.178-1.227,0.357
		c-0.37,0.182-0.68,0.428-0.927,0.742c-0.247,0.312-0.371,0.727-0.371,1.24c0,0.951,0.304,1.611,0.913,1.982
		C166.311,122.049,167.138,122.234,168.184,122.234z"/>
	<path d="M183.533,108.998c0.229,0,0.489,0.014,0.784,0.043c0.295,0.027,0.585,0.066,0.87,0.113
		c0.285,0.049,0.547,0.096,0.785,0.143c0.237,0.049,0.413,0.09,0.527,0.129l-0.456,2.311c-0.21-0.076-0.557-0.166-1.042-0.271
		c-0.484-0.104-1.107-0.156-1.868-0.156c-0.495,0-0.984,0.053-1.47,0.156c-0.484,0.105-0.804,0.176-0.955,0.215v12.467h-2.653
		v-14.207c0.628-0.229,1.407-0.443,2.339-0.643S182.373,108.998,183.533,108.998z"/>
	<path d="M188.239,116.758c0-1.312,0.189-2.459,0.57-3.438c0.38-0.98,0.885-1.793,1.512-2.439c0.628-0.646,1.351-1.131,2.169-1.455
		c0.817-0.324,1.654-0.484,2.51-0.484c1.997,0,3.528,0.623,4.594,1.867c1.064,1.246,1.597,3.143,1.597,5.691
		c0,0.115,0,0.262,0,0.443c0,0.18-0.01,0.346-0.028,0.498h-10.156c0.114,1.541,0.562,2.711,1.341,3.51
		c0.78,0.799,1.997,1.197,3.652,1.197c0.932,0,1.716-0.08,2.354-0.242c0.637-0.16,1.117-0.318,1.44-0.471l0.371,2.225
		c-0.324,0.172-0.89,0.354-1.697,0.543c-0.809,0.189-1.727,0.285-2.753,0.285c-1.294,0-2.411-0.195-3.353-0.584
		c-0.941-0.391-1.717-0.928-2.325-1.613c-0.608-0.684-1.061-1.498-1.354-2.439C188.385,118.91,188.239,117.879,188.239,116.758z
		 M198.423,115.303c0.019-1.199-0.281-2.184-0.898-2.953c-0.618-0.77-1.47-1.156-2.554-1.156c-0.608,0-1.146,0.119-1.611,0.357
		c-0.467,0.238-0.861,0.547-1.185,0.928s-0.575,0.818-0.756,1.312s-0.3,0.998-0.356,1.512H198.423z"/>
	<path d="M217.394,102.008c0.78,0,1.45,0.057,2.012,0.172c0.561,0.113,0.955,0.219,1.184,0.314l-0.485,2.281
		c-0.228-0.113-0.552-0.223-0.97-0.328c-0.418-0.104-0.932-0.156-1.54-0.156c-1.236,0-2.102,0.338-2.597,1.012
		c-0.494,0.676-0.741,1.584-0.741,2.725v1.283h5.705v2.227h-5.705v12.609h-2.653v-16.176c0-1.902,0.466-3.371,1.397-4.408
		C213.932,102.527,215.396,102.008,217.394,102.008z"/>
	<path d="M235.709,116.729c0,1.18-0.172,2.244-0.514,3.195c-0.343,0.951-0.823,1.77-1.44,2.453
		c-0.618,0.686-1.355,1.213-2.211,1.584c-0.856,0.371-1.788,0.557-2.796,0.557c-1.009,0-1.94-0.186-2.796-0.557
		s-1.593-0.898-2.211-1.584c-0.618-0.684-1.099-1.502-1.44-2.453c-0.343-0.951-0.514-2.016-0.514-3.195
		c0-1.16,0.171-2.221,0.514-3.182c0.342-0.959,0.822-1.781,1.44-2.467s1.355-1.213,2.211-1.584s1.787-0.555,2.796-0.555
		c1.008,0,1.939,0.184,2.796,0.555c0.855,0.371,1.593,0.898,2.211,1.584c0.617,0.686,1.098,1.508,1.44,2.467
		C235.537,114.508,235.709,115.568,235.709,116.729z M232.941,116.729c0-1.674-0.376-3-1.127-3.98
		c-0.751-0.979-1.773-1.469-3.066-1.469c-1.294,0-2.315,0.49-3.067,1.469c-0.751,0.98-1.127,2.307-1.127,3.98s0.376,3,1.127,3.98
		c0.752,0.979,1.773,1.469,3.067,1.469c1.293,0,2.315-0.49,3.066-1.469C232.565,119.729,232.941,118.402,232.941,116.729z"/>
	<path d="M244.923,108.998c0.229,0,0.489,0.014,0.784,0.043c0.295,0.027,0.585,0.066,0.87,0.113
		c0.285,0.049,0.547,0.096,0.785,0.143c0.237,0.049,0.413,0.09,0.527,0.129l-0.456,2.311c-0.21-0.076-0.557-0.166-1.042-0.271
		c-0.484-0.104-1.107-0.156-1.868-0.156c-0.495,0-0.984,0.053-1.47,0.156c-0.484,0.105-0.804,0.176-0.955,0.215v12.467h-2.653
		v-14.207c0.628-0.229,1.407-0.443,2.339-0.643S243.763,108.998,244.923,108.998z"/>
</g>
<g enable-background="new    ">
	<path fill="#3B4B9F" d="M269.54,115.016l-0.37,2.197c-0.828,4.965-3.481,7.162-8.075,7.162c-0.686,0-1.684-0.059-2.711-0.201
		l-0.885,5.051c-0.057,0.314-0.143,0.57-0.685,0.57h-2.625c-0.314,0-0.542-0.17-0.457-0.57l3.481-19.859
		c0.086-0.428,0.229-0.6,0.913-0.77c1.854-0.457,4.052-0.742,5.878-0.742c3.823,0,5.678,2.254,5.678,5.506
		C269.683,113.873,269.626,114.445,269.54,115.016z M263.463,110.936c-1.027,0-2.226,0.084-2.797,0.199l-1.74,9.959
		c0.771,0.113,2.026,0.199,2.711,0.199c2.454,0,3.396-1.883,3.767-4.08l0.371-2.197c0.113-0.629,0.171-1.199,0.171-1.684
		C265.946,111.791,265.318,110.936,263.463,110.936z"/>
	<path fill="#3B4B9F" d="M285.859,114.959l-0.428,2.311c-0.885,4.707-3.567,7.105-8.047,7.105c-3.881,0-5.707-2.74-5.707-5.736
		c0-0.457,0.028-0.912,0.114-1.369l0.428-2.311c0.856-4.68,3.596-7.105,8.075-7.105c3.909,0,5.707,2.625,5.707,5.621
		C286.001,113.959,285.944,114.473,285.859,114.959z M279.724,111.105c-1.741,0-3.225,1.027-3.738,3.854l-0.428,2.311
		c-0.086,0.457-0.114,0.885-0.114,1.256c0,1.684,0.827,2.596,2.511,2.596c1.998,0,3.225-1.197,3.71-3.852l0.428-2.311
		c0.086-0.457,0.114-0.885,0.114-1.256C282.206,112.02,281.408,111.105,279.724,111.105z"/>
	<path fill="#3B4B9F" d="M309.995,108.053c0.399,0,0.656,0.143,0.456,0.656l-4.851,13.125c-0.628,1.713-1.228,2.398-2.968,2.398
		h-0.771c-1.541,0-2.197-0.742-2.311-2.227l-0.714-8.73c0-0.115,0-0.143-0.057-0.143c-0.058,0-0.058,0.027-0.114,0.143l-3.795,8.73
		c-0.656,1.484-1.569,2.227-3.11,2.227h-0.771c-1.74,0-2.083-0.686-2.111-2.398l-0.285-13.125c0-0.342,0.113-0.656,0.685-0.656
		h2.653c0.285,0,0.428,0.229,0.428,0.514l-0.257,12.07c0,0.285,0,0.398,0.086,0.398s0.143-0.113,0.257-0.398l4.052-9.588
		c0.457-1.113,0.856-1.227,1.826-1.227h1.997c0.971,0,1.284,0.113,1.37,1.227l0.685,9.588c0.028,0.285,0.028,0.398,0.114,0.398
		s0.143-0.143,0.229-0.398l3.938-12.07c0.086-0.256,0.2-0.514,0.6-0.514H309.995z"/>
	<path fill="#3B4B9F" d="M324.514,115.328l-0.229,1.371c-0.086,0.455-0.285,0.713-0.685,0.713h-9.303
		c-0.057,0.398-0.143,0.77-0.143,1.17c0,1.541,0.799,2.568,2.911,2.568c2.083,0,4.052-0.199,5.278-0.314
		c0.371-0.029,0.6,0.057,0.542,0.428l-0.342,1.883c-0.086,0.457-0.172,0.656-0.714,0.742c-1.912,0.344-3.167,0.486-5.735,0.486
		c-2.539,0-5.621-1.428-5.621-5.736c0-0.514,0.028-1.113,0.143-1.711l0.314-1.77c0.941-5.336,3.766-7.305,8.132-7.305
		c3.795,0,5.593,2.51,5.593,5.85C324.657,114.217,324.599,114.787,324.514,115.328z M318.493,111.105
		c-2.282,0-3.338,1.541-3.709,3.625h6.049c0.058-0.371,0.114-0.715,0.114-1.084C320.947,111.99,320.063,111.105,318.493,111.105z"/>
	<path fill="#3B4B9F" d="M337.237,108.424l-0.371,2.055c-0.058,0.314-0.2,0.57-0.656,0.57c-0.913,0-2.169,0.057-4.109,1.027
		l-2.025,11.471c-0.058,0.314-0.143,0.6-0.686,0.6h-2.625c-0.342,0-0.542-0.172-0.456-0.6l2.625-14.924
		c0.057-0.312,0.229-0.57,0.656-0.57h2.482c0.399,0,0.57,0.143,0.485,0.57l-0.114,0.6c1.626-1.256,3.139-1.369,4.337-1.369
		c0.371,0,0.457,0.199,0.457,0.457C337.237,108.367,337.237,108.395,337.237,108.424z"/>
</g>
<g enable-background="new    ">
	<path d="M354.771,123.719c-0.609,0.152-1.412,0.312-2.411,0.484c-0.998,0.172-2.153,0.256-3.466,0.256
		c-1.141,0-2.102-0.166-2.881-0.498c-0.78-0.332-1.408-0.803-1.884-1.412s-0.817-1.326-1.026-2.154
		c-0.21-0.828-0.314-1.744-0.314-2.754v-8.33h2.653v7.76c0,1.809,0.285,3.102,0.856,3.881c0.57,0.779,1.53,1.17,2.881,1.17
		c0.285,0,0.58-0.01,0.885-0.029c0.304-0.018,0.589-0.043,0.855-0.07c0.267-0.029,0.509-0.059,0.728-0.086
		c0.219-0.029,0.375-0.062,0.471-0.1v-12.525h2.653V123.719z"/>
	<path d="M362.788,122.234c1.084,0,1.887-0.143,2.41-0.428c0.522-0.285,0.784-0.742,0.784-1.369c0-0.646-0.257-1.16-0.77-1.541
		c-0.514-0.381-1.36-0.809-2.539-1.283c-0.571-0.229-1.118-0.461-1.641-0.699c-0.523-0.238-0.975-0.518-1.355-0.842
		c-0.38-0.322-0.685-0.713-0.912-1.17c-0.229-0.455-0.343-1.018-0.343-1.682c0-1.312,0.485-2.355,1.455-3.125
		s2.291-1.154,3.965-1.154c0.419,0,0.837,0.023,1.256,0.07c0.418,0.047,0.808,0.105,1.169,0.172s0.681,0.137,0.956,0.213
		s0.489,0.143,0.642,0.199l-0.484,2.283c-0.285-0.152-0.732-0.309-1.341-0.471c-0.609-0.162-1.341-0.242-2.197-0.242
		c-0.741,0-1.388,0.146-1.939,0.441s-0.827,0.756-0.827,1.385c0,0.322,0.062,0.607,0.186,0.855c0.123,0.248,0.313,0.471,0.57,0.67
		s0.575,0.385,0.956,0.557c0.38,0.172,0.836,0.352,1.369,0.541c0.703,0.268,1.331,0.529,1.883,0.785
		c0.551,0.258,1.021,0.557,1.412,0.898c0.39,0.342,0.688,0.756,0.898,1.242c0.209,0.484,0.313,1.078,0.313,1.781
		c0,1.371-0.509,2.406-1.526,3.111c-1.018,0.703-2.467,1.055-4.35,1.055c-1.312,0-2.34-0.109-3.081-0.328
		c-0.742-0.219-1.246-0.385-1.513-0.5l0.485-2.281c0.304,0.113,0.789,0.285,1.455,0.514
		C360.8,122.121,361.684,122.234,362.788,122.234z"/>
	<path d="M371.231,116.758c0-1.312,0.19-2.459,0.57-3.438c0.381-0.98,0.885-1.793,1.513-2.439c0.627-0.646,1.35-1.131,2.168-1.455
		c0.817-0.324,1.654-0.484,2.511-0.484c1.996,0,3.527,0.623,4.593,1.867c1.064,1.246,1.598,3.143,1.598,5.691
		c0,0.115,0,0.262,0,0.443c0,0.18-0.01,0.346-0.029,0.498h-10.155c0.114,1.541,0.561,2.711,1.341,3.51
		c0.779,0.799,1.997,1.197,3.651,1.197c0.932,0,1.716-0.08,2.354-0.242c0.637-0.16,1.117-0.318,1.44-0.471l0.371,2.225
		c-0.323,0.172-0.89,0.354-1.697,0.543c-0.809,0.189-1.726,0.285-2.753,0.285c-1.294,0-2.411-0.195-3.353-0.584
		c-0.941-0.391-1.716-0.928-2.324-1.613c-0.609-0.684-1.061-1.498-1.355-2.439S371.231,117.879,371.231,116.758z M381.416,115.303
		c0.019-1.199-0.281-2.184-0.898-2.953c-0.618-0.77-1.47-1.156-2.554-1.156c-0.608,0-1.146,0.119-1.611,0.357
		c-0.467,0.238-0.861,0.547-1.185,0.928s-0.575,0.818-0.756,1.312s-0.299,0.998-0.356,1.512H381.416z"/>
	<path d="M393.483,108.998c0.229,0,0.489,0.014,0.784,0.043c0.295,0.027,0.585,0.066,0.87,0.113
		c0.286,0.049,0.547,0.096,0.785,0.143c0.237,0.049,0.413,0.09,0.527,0.129l-0.456,2.311c-0.21-0.076-0.557-0.166-1.041-0.271
		c-0.485-0.104-1.108-0.156-1.869-0.156c-0.495,0-0.984,0.053-1.469,0.156c-0.485,0.105-0.804,0.176-0.956,0.215v12.467h-2.653
		v-14.207c0.628-0.229,1.407-0.443,2.34-0.643C391.277,109.098,392.323,108.998,393.483,108.998z"/>
	<path d="M402.47,122.234c1.084,0,1.887-0.143,2.41-0.428c0.522-0.285,0.784-0.742,0.784-1.369c0-0.646-0.257-1.16-0.77-1.541
		c-0.514-0.381-1.36-0.809-2.539-1.283c-0.571-0.229-1.118-0.461-1.641-0.699c-0.523-0.238-0.975-0.518-1.355-0.842
		c-0.38-0.322-0.685-0.713-0.912-1.17c-0.229-0.455-0.343-1.018-0.343-1.682c0-1.312,0.485-2.355,1.455-3.125
		s2.291-1.154,3.965-1.154c0.419,0,0.837,0.023,1.256,0.07c0.418,0.047,0.808,0.105,1.169,0.172s0.681,0.137,0.956,0.213
		s0.489,0.143,0.642,0.199l-0.484,2.283c-0.285-0.152-0.732-0.309-1.341-0.471c-0.609-0.162-1.341-0.242-2.197-0.242
		c-0.741,0-1.388,0.146-1.939,0.441s-0.827,0.756-0.827,1.385c0,0.322,0.062,0.607,0.186,0.855c0.123,0.248,0.313,0.471,0.57,0.67
		s0.575,0.385,0.956,0.557c0.38,0.172,0.836,0.352,1.369,0.541c0.703,0.268,1.331,0.529,1.883,0.785
		c0.551,0.258,1.021,0.557,1.412,0.898c0.39,0.342,0.688,0.756,0.898,1.242c0.209,0.484,0.313,1.078,0.313,1.781
		c0,1.371-0.509,2.406-1.526,3.111c-1.018,0.703-2.467,1.055-4.35,1.055c-1.312,0-2.34-0.109-3.081-0.328
		c-0.742-0.219-1.246-0.385-1.513-0.5l0.485-2.281c0.304,0.113,0.789,0.285,1.455,0.514
		C400.481,122.121,401.366,122.234,402.47,122.234z"/>
</g>
<rect x="-373.381" y="191.601" fill="#B5B5B6" stroke="#484748" stroke-width="0.2" stroke-miterlimit="10" width="1127.944" height="533.973"/>
<rect x="-175.391" y="902" fill="none" width="164.992" height="64.497"/>
<text transform="matrix(1 0 0 1 -160.1428 926.8302)" fill="#3B4B9F" font-family="'Ubuntu-Medium'" font-size="32">features:</text>
<circle fill="#C6C6C5" stroke="#3B4B9F" stroke-miterlimit="10" cx="12.35" cy="914.565" r="14.249"/>
<circle fill="#C6C6C5" stroke="#3B4B9F" stroke-miterlimit="10" cx="59.255" cy="914.565" r="14.249"/>
<circle fill="#3B4B9F" stroke="#3B4B9F" stroke-miterlimit="10" cx="106.16" cy="914.565" r="14.249"/>
<circle fill="#C6C6C5" stroke="#3B4B9F" stroke-miterlimit="10" cx="153.065" cy="914.565" r="14.249"/>
<circle fill="#C6C6C5" stroke="#3B4B9F" stroke-miterlimit="10" cx="199.97" cy="914.565" r="14.249"/>
<circle fill="#C6C6C5" stroke="#3B4B9F" stroke-miterlimit="10" cx="246.876" cy="914.565" r="14.249"/>
<circle fill="#C6C6C5" stroke="#3B4B9F" stroke-miterlimit="10" cx="293.781" cy="914.565" r="14.249"/>
<circle fill="#C6C6C5" stroke="#3B4B9F" stroke-miterlimit="10" cx="340.686" cy="914.565" r="14.249"/>
<circle fill="#C6C6C5" stroke="#3B4B9F" stroke-miterlimit="10" cx="387.591" cy="914.565" r="14.249"/>
</svg>
